<?xml version="1.0" encoding="UTF-8"?>
<svg xmlns="http://www.w3.org/2000/svg" viewBox="0 0 384 440">
  <rect width="384" height="440" fill="none"/>


    <!-- Moon from moon-clear.svg, placed behind the cloud -->
    <path
        d="M3.32031 11.6835C3.32031 16.6541 7.34975 20.6835 12.3203 20.6835C16.1075 20.6835 19.3483 18.3443 20.6768 15.032C19.6402 15.4486 18.5059 15.6834 17.3203 15.6834C12.3497 15.6834 8.32031 11.654 8.32031 6.68342C8.32031 5.50338 8.55165 4.36259 8.96453 3.32996C5.65605 4.66028 3.32031 7.89912 3.32031 11.6835Z"
        fill="#FFFF00"
        transform="translate(20, 40) scale(15)"
    />

    <!-- Cloud from cloudy.svg geometry, rendered as solid gray -->
    <path
        d="M280,125.672c-4.32,0-8.632,0.264-12.896,0.784C253.592,85.328,213.64,56,168,56c-57.344,0-104,45.376-104,101.16
        c0,0.904,0.008,1.8,0.032,2.696C26.592,169.992,0,203.064,0,242.328C0,289.568,39.48,328,88,328h192
        c57.344,0,104-45.376,104-101.16S337.344,125.672,280,125.672z"
        fill="#777777"
        transform="translate(70, 120) scale(0.65)"
    />



</svg>
