<?xml version="1.0" encoding="UTF-8"?>
<svg xmlns="http://www.w3.org/2000/svg" viewBox="0 0 384 440">
  <rect width="384" height="440" fill="none"/>

  <!-- Cloud shape from cloudy.svg, simplified to a solid fill -->
  <path
    d="M280,125.672c-4.32,0-8.632,0.264-12.896,0.784C253.592,85.328,213.64,56,168,56c-57.344,0-104,45.376-104,101.16
       c0,0.904,0.008,1.8,0.032,2.696C26.592,169.992,0,203.064,0,242.328C0,289.568,39.48,328,88,328h192
       c57.344,0,104-45.376,104-101.16S337.344,125.672,280,125.672z"
    fill="#bdbdbd"
    transform="translate(22,10) scale(0.88)"
  />

  <!-- Heavier rain: balanced vertical streaks emerging from cloud base -->
  <g stroke="#0066ff" stroke-width="10" stroke-linecap="round" opacity="0.95">
    <line x1="146" y1="300" x2="146" y2="368"/>
    <line x1="178" y1="300" x2="178" y2="382"/>
    <line x1="210" y1="300" x2="210" y2="374"/>
    <line x1="242" y1="300" x2="242" y2="388"/>
  </g>
</svg>